<mxfile host="app.diagrams.net" modified="2024-06-12T13:26:28.286Z" agent="Mozilla/5.0 (Windows NT 10.0; Win64; x64; rv:126.0) Gecko/20100101 Firefox/126.0" etag="gU_HPpbvK-_pCJkrqRiZ" version="24.5.3" type="device">
  <diagram name="Seite-1" id="KewEI9Xgmz1WB3sDferl">
    <mxGraphModel dx="691" dy="367" grid="1" gridSize="10" guides="1" tooltips="1" connect="1" arrows="1" fold="1" page="1" pageScale="1" pageWidth="827" pageHeight="1169" math="0" shadow="0">
      <root>
        <mxCell id="0" />
        <mxCell id="1" parent="0" />
        <mxCell id="TAZN_gYm_Ykbg8Mw-ge4-3" value="Vorbedingung (op&lt;sub&gt;A&lt;/sub&gt;)" style="text;html=1;align=center;verticalAlign=middle;whiteSpace=wrap;rounded=0;" vertex="1" parent="1">
          <mxGeometry x="80" y="80" width="160" height="40" as="geometry" />
        </mxCell>
        <mxCell id="TAZN_gYm_Ykbg8Mw-ge4-4" value="Vorbedingung (op&lt;sub&gt;B&lt;/sub&gt;)" style="text;html=1;align=center;verticalAlign=middle;whiteSpace=wrap;rounded=0;" vertex="1" parent="1">
          <mxGeometry x="80" y="200" width="160" height="40" as="geometry" />
        </mxCell>
        <mxCell id="TAZN_gYm_Ykbg8Mw-ge4-6" value="&lt;div&gt;Nachbedingung (op&lt;sub&gt;A&lt;/sub&gt;)&lt;/div&gt;" style="text;html=1;align=center;verticalAlign=middle;whiteSpace=wrap;rounded=0;" vertex="1" parent="1">
          <mxGeometry x="360" y="80" width="160" height="40" as="geometry" />
        </mxCell>
        <mxCell id="TAZN_gYm_Ykbg8Mw-ge4-7" value="Nachbedingung (op&lt;sub&gt;B&lt;/sub&gt;)" style="text;html=1;align=center;verticalAlign=middle;whiteSpace=wrap;rounded=0;" vertex="1" parent="1">
          <mxGeometry x="360" y="200" width="160" height="40" as="geometry" />
        </mxCell>
        <mxCell id="TAZN_gYm_Ykbg8Mw-ge4-9" value="op&lt;sub&gt;A&lt;/sub&gt;" style="endArrow=open;html=1;rounded=0;endFill=0;startSize=10;endSize=10;verticalAlign=bottom;labelBackgroundColor=none;" edge="1" parent="1" source="TAZN_gYm_Ykbg8Mw-ge4-3" target="TAZN_gYm_Ykbg8Mw-ge4-6">
          <mxGeometry width="50" height="50" relative="1" as="geometry">
            <mxPoint x="390" y="350" as="sourcePoint" />
            <mxPoint x="440" y="300" as="targetPoint" />
          </mxGeometry>
        </mxCell>
        <mxCell id="TAZN_gYm_Ykbg8Mw-ge4-10" value="op&lt;sub&gt;B&lt;/sub&gt;" style="endArrow=open;html=1;rounded=0;endFill=0;startSize=10;endSize=10;verticalAlign=bottom;labelBackgroundColor=none;" edge="1" parent="1" source="TAZN_gYm_Ykbg8Mw-ge4-4" target="TAZN_gYm_Ykbg8Mw-ge4-7">
          <mxGeometry width="50" height="50" relative="1" as="geometry">
            <mxPoint x="240" y="219.5" as="sourcePoint" />
            <mxPoint x="400" y="219.5" as="targetPoint" />
          </mxGeometry>
        </mxCell>
        <mxCell id="TAZN_gYm_Ykbg8Mw-ge4-31" value="" style="endArrow=none;html=1;rounded=0;exitX=0.5;exitY=0;exitDx=0;exitDy=0;shape=link;" edge="1" parent="1" target="TAZN_gYm_Ykbg8Mw-ge4-3">
          <mxGeometry width="50" height="50" relative="1" as="geometry">
            <mxPoint x="160" y="197" as="sourcePoint" />
            <mxPoint x="160" y="119" as="targetPoint" />
          </mxGeometry>
        </mxCell>
        <mxCell id="TAZN_gYm_Ykbg8Mw-ge4-32" value="" style="endArrow=none;html=1;rounded=0;exitX=0.5;exitY=0;exitDx=0;exitDy=0;" edge="1" parent="1" source="TAZN_gYm_Ykbg8Mw-ge4-4">
          <mxGeometry width="50" height="50" relative="1" as="geometry">
            <mxPoint x="162" y="200" as="sourcePoint" />
            <mxPoint x="168" y="187" as="targetPoint" />
          </mxGeometry>
        </mxCell>
        <mxCell id="TAZN_gYm_Ykbg8Mw-ge4-33" value="" style="endArrow=none;html=1;rounded=0;exitX=0.5;exitY=0;exitDx=0;exitDy=0;" edge="1" parent="1" source="TAZN_gYm_Ykbg8Mw-ge4-4">
          <mxGeometry width="50" height="50" relative="1" as="geometry">
            <mxPoint x="162" y="197" as="sourcePoint" />
            <mxPoint x="152" y="187" as="targetPoint" />
          </mxGeometry>
        </mxCell>
        <mxCell id="TAZN_gYm_Ykbg8Mw-ge4-43" value="" style="endArrow=none;html=1;rounded=0;shape=link;" edge="1" parent="1" source="TAZN_gYm_Ykbg8Mw-ge4-7">
          <mxGeometry width="50" height="50" relative="1" as="geometry">
            <mxPoint x="440" y="204" as="sourcePoint" />
            <mxPoint x="440" y="123.99999999999997" as="targetPoint" />
          </mxGeometry>
        </mxCell>
        <mxCell id="TAZN_gYm_Ykbg8Mw-ge4-45" value="" style="endArrow=none;html=1;rounded=0;entryX=0.5;entryY=1;entryDx=0;entryDy=0;" edge="1" parent="1" target="TAZN_gYm_Ykbg8Mw-ge4-6">
          <mxGeometry width="50" height="50" relative="1" as="geometry">
            <mxPoint x="433" y="132" as="sourcePoint" />
            <mxPoint x="443" y="111.99999999999997" as="targetPoint" />
          </mxGeometry>
        </mxCell>
        <mxCell id="TAZN_gYm_Ykbg8Mw-ge4-46" value="" style="endArrow=none;html=1;rounded=0;entryX=0.5;entryY=1;entryDx=0;entryDy=0;" edge="1" parent="1" target="TAZN_gYm_Ykbg8Mw-ge4-6">
          <mxGeometry width="50" height="50" relative="1" as="geometry">
            <mxPoint x="447" y="132" as="sourcePoint" />
            <mxPoint x="437" y="111.99999999999997" as="targetPoint" />
          </mxGeometry>
        </mxCell>
      </root>
    </mxGraphModel>
  </diagram>
</mxfile>
